<?xml version="1.0" encoding="iso-8859-1"?>
<!-- Generator: Adobe Illustrator 18.0.0, SVG Export Plug-In . SVG Version: 6.00 Build 0)  -->
<!DOCTYPE svg PUBLIC "-//W3C//DTD SVG 1.1//EN" "http://www.w3.org/Graphics/SVG/1.1/DTD/svg11.dtd">
<svg version="1.1" id="Capa_1" xmlns="http://www.w3.org/2000/svg" xmlns:xlink="http://www.w3.org/1999/xlink" x="0px" y="0px"
	 viewBox="0 0 297.503 297.503" style="enable-background:new 0 0 297.503 297.503;" xml:space="preserve">
<g>
	<g id="XMLID_23_">
		<g>
			<path style="fill:#0B77A5;" d="M277.147,64.851c0.91,13.46-3.94,26.9-13.89,36.85c-11.02,11.02-26.78,15.96-42.14,13.22
				c-3.22-0.58-6.51,0.46-8.81,2.77l-110.36,110.35c-2.01,2.01-3.06,4.78-2.91,7.62c0.62,11.2-3.56,22.17-11.48,30.08
				c-15.38,15.39-40.42,15.39-55.8,0c-15.38-15.38-15.38-40.41,0-55.8c7.4-7.4,17.47-11.54,27.9-11.54c0.73,0,1.46,0.02,2.18,0.06
				c2.84,0.17,5.61-0.9,7.62-2.91l110.36-110.35c2.3-2.31,3.34-5.6,2.77-8.82c-2.74-15.37,2.2-31.12,13.21-42.13
				c9.96-9.96,23.39-14.81,36.85-13.9l-28.55,28.55c-3.9,3.9-3.9,10.23,0,14.13l30.37,30.37c3.91,3.9,10.23,3.9,14.13,0
				L277.147,64.851z M85.228,234.611c0.65-2.41-0.05-4.99-1.81-6.75l-13.77-13.78c-1.77-1.76-4.35-2.45-6.76-1.81l-18.81,5.05
				c-2.42,0.64-4.3,2.53-4.95,4.94l-5.04,18.82c-0.65,2.41,0.05,4.98,1.81,6.75l13.77,13.77c1.33,1.33,3.12,2.05,4.95,2.05
				c0.6,0,1.21-0.08,1.81-0.24l18.81-5.04c2.42-0.65,4.3-2.53,4.95-4.94L85.228,234.611z"/>
			<path d="M291.758,41.381c10.92,25.57,5.28,54.79-14.38,74.45c-14.36,14.36-34.39,21.44-54.45,19.49l-103.87,103.86
				c-0.34,15.23-6.54,29.85-17.37,40.69c-11.59,11.59-26.81,17.38-42.03,17.38s-30.44-5.79-42.03-17.38
				c-23.17-23.17-23.17-60.88,0-84.05c10.84-10.84,25.46-17.03,40.69-17.38l103.87-103.87c-1.96-20.06,5.12-40.09,19.49-54.45
				c19.65-19.65,48.87-25.3,74.44-14.37c3.05,1.3,5.26,4.03,5.89,7.29c0.63,3.25-0.4,6.61-2.75,8.95l-33.97,33.98l16.25,16.24
				l33.97-33.97c2.34-2.34,5.7-3.37,8.96-2.74C287.717,36.121,290.457,38.331,291.758,41.381z M263.258,101.701
				c9.95-9.95,14.8-23.39,13.89-36.85l-28.55,28.55c-3.9,3.9-10.22,3.9-14.13,0l-30.37-30.37c-3.9-3.9-3.9-10.23,0-14.13
				l28.55-28.55c-13.46-0.91-26.89,3.94-36.85,13.9c-11.01,11.01-15.95,26.76-13.21,42.13c0.57,3.22-0.47,6.51-2.77,8.82
				l-110.36,110.35c-2.01,2.01-4.78,3.08-7.62,2.91c-0.72-0.04-1.45-0.06-2.18-0.06c-10.43,0-20.5,4.14-27.9,11.54
				c-15.38,15.39-15.38,40.42,0,55.8c15.38,15.39,40.42,15.39,55.8,0c7.92-7.91,12.1-18.88,11.48-30.08
				c-0.15-2.84,0.9-5.61,2.91-7.62l110.36-110.35c2.3-2.31,5.59-3.35,8.81-2.77C236.477,117.661,252.238,112.721,263.258,101.701z"
				/>
			<path d="M83.418,227.861c1.76,1.76,2.46,4.34,1.81,6.75l-5.04,18.82c-0.65,2.41-2.53,4.29-4.95,4.94l-18.81,5.04
				c-0.6,0.16-1.21,0.24-1.81,0.24c-1.83,0-3.62-0.72-4.95-2.05l-13.77-13.77c-1.76-1.77-2.46-4.34-1.81-6.75l5.04-18.82
				c0.65-2.41,2.53-4.3,4.95-4.94l18.81-5.05c2.41-0.64,4.99,0.05,6.76,1.81L83.418,227.861z M67.717,245.911l2.96-11.02l-8.07-8.06
				l-11.01,2.95l-2.96,11.02l8.07,8.06L67.717,245.911z"/>
		</g>
		<g>
		</g>
	</g>
</g>
<g>
</g>
<g>
</g>
<g>
</g>
<g>
</g>
<g>
</g>
<g>
</g>
<g>
</g>
<g>
</g>
<g>
</g>
<g>
</g>
<g>
</g>
<g>
</g>
<g>
</g>
<g>
</g>
<g>
</g>
</svg>
